<svg width="75" height="48" viewBox="0 0 75 48" fill="none" xmlns="http://www.w3.org/2000/svg">
<path fill-rule="evenodd" clip-rule="evenodd" d="M23.7198 0.31543L40.7432 9.2754H30.3643V13.3006L29.279 12.7178V9.2754H23.7002L23.7198 0.31543ZM36.4842 29.9269L23.7541 36.0164L23.7506 29.0853C25.6872 28.217 27.1434 26.8321 28.0739 24.9794L30.3642 23.9376V29.9269H36.4842ZM40.7512 19.2134L41.0911 19.0586L40.7512 18.8765V18.4377C41.1607 18.4397 42.3985 18.5045 42.6877 18.8289C42.7904 18.9434 42.8031 19.3568 42.8031 19.4969V19.6214C42.8031 19.7654 42.7903 20.2446 42.687 20.3619C42.4115 20.6769 41.1471 20.741 40.7512 20.7438V19.2134Z" fill="#CAF31C"/>
<path fill-rule="evenodd" clip-rule="evenodd" d="M0.0195672 7.26991e-05L18.9301 9.95311V19.2063C18.9301 19.4054 18.9025 20.1002 18.7626 20.2596C18.6181 20.3836 18.0171 20.4118 17.8468 20.4118H17.7705C16.6508 20.4118 16.6107 20.2363 16.6107 19.2063V9.27571H6.26224V12.7691L0 9.40765L0.0195672 7.26991e-05ZM12.9373 29.5384L0.0545244 35.7012L0.0492479 26.6312L6.8519 23.5371C7.79327 26.5704 9.85075 28.593 12.9373 29.5384Z" fill="#CAF31C"/>
<path fill-rule="evenodd" clip-rule="evenodd" d="M46.4374 0.631348L66.452 11.1642L64.6961 15.3953L62.1576 9.27567H50.3948L52.1171 13.0979L50.9066 12.4479C49.7213 11.2642 48.1787 10.4433 46.418 9.93351L46.4374 0.631348ZM74.4129 18.4572L74.3451 22.9992L71.9832 24.1287L74.4129 18.4572ZM59.8624 29.9271L46.4726 36.3323L46.4692 29.2516C49.1365 28.4617 51.2552 26.9469 52.4229 24.5535L56.4518 22.7213L59.6983 29.9271H59.8624Z" fill="#CAF31C"/>
<path fill-rule="evenodd" clip-rule="evenodd" d="M41.9304 18.5391V20.6442C41.4845 20.7213 40.9766 20.7426 40.751 20.744V18.438C40.9848 18.4394 41.4872 18.4607 41.9304 18.5391Z" fill="#CAF31C"/>
<path d="M17.8267 27.4328C25.609 27.4328 26.3721 22.1774 26.3721 19.1237V11.7495H21.2601V19.0822C21.2601 20.8479 20.745 22.8835 17.5595 22.8835H17.4834C14.2596 22.8835 13.7067 20.8479 13.7067 19.0822V11.7495H8.59473V19.1237C8.59473 22.1774 9.14797 27.4328 17.2354 27.4328H17.8267ZM32.6914 27.2043H41.0461C48.9429 27.2043 50.507 23.1952 50.507 19.6639V19.0407C50.507 15.5509 48.7712 11.7496 41.0461 11.7496H32.6914V27.2043ZM37.8416 15.7171H40.4356C44.6322 15.7171 45.128 17.8774 45.128 19.3729V19.4977C45.128 21.0556 44.6702 23.216 40.4356 23.216H37.8416V15.7171ZM67.4702 27.2043L74.089 11.7496H68.6908L64.3994 22.0942L60.1076 11.7496H54.1372L61.0994 27.2043H67.4702Z" fill="white"/>
<path d="M0.253906 39.209V38.5202H6.14745V39.209H3.57326V44.4002H2.8281V39.209H0.253906ZM12.0144 44.4002H7.17084V38.5202H12.0144V39.209H7.90754V41.1326H11.591V41.7878H7.90754V43.7114H12.0144V44.4002ZM13.6068 43.7534C13.1326 43.2774 12.8955 42.513 12.8955 41.4602C12.8955 40.4074 13.1326 39.6458 13.6068 39.1754C14.0866 38.6994 14.8572 38.4614 15.9185 38.4614C16.7878 38.4614 17.4596 38.621 17.9338 38.9402C18.408 39.2538 18.7129 39.7522 18.8483 40.4354H18.0862C17.9508 39.993 17.708 39.6682 17.358 39.461C17.008 39.2538 16.5282 39.1502 15.9185 39.1502C15.1169 39.1502 14.5354 39.335 14.1741 39.7046C13.8129 40.0686 13.6322 40.6538 13.6322 41.4602C13.6322 42.2666 13.8129 42.8546 14.1741 43.2242C14.5354 43.5882 15.1169 43.7702 15.9185 43.7702C16.5282 43.7702 17.008 43.6666 17.358 43.4594C17.7137 43.2522 17.9564 42.9246 18.0862 42.4766H18.8483C18.7129 43.1598 18.408 43.661 17.9338 43.9802C17.4596 44.2994 16.7878 44.459 15.9185 44.459C14.8572 44.459 14.0866 44.2238 13.6068 43.7534ZM20.1371 44.4002V38.5202H20.8738V41.1158H25.1076V38.5202H25.8443V44.4002H25.1076V41.8046H20.8738V44.4002H20.1371ZM28.126 44.4002H27.3893V38.5202H28.126L32.2921 43.3418V38.5202H33.0288V44.4002H32.2921L28.126 39.587V44.4002ZM35.0325 39.1754C35.5124 38.6994 36.2829 38.4614 37.3442 38.4614C38.4055 38.4614 39.1761 38.6994 39.6559 39.1754C40.1358 39.6514 40.3756 40.413 40.3756 41.4602C40.3756 42.5074 40.1358 43.269 39.6559 43.745C39.1761 44.221 38.4055 44.459 37.3442 44.459C36.2829 44.459 35.5124 44.2238 35.0325 43.7534C34.5583 43.2774 34.3212 42.513 34.3212 41.4602C34.3212 40.4074 34.5583 39.6458 35.0325 39.1754ZM35.5998 39.7046C35.2386 40.0686 35.0579 40.6538 35.0579 41.4602C35.0579 42.2666 35.2386 42.8546 35.5998 43.2242C35.9612 43.5882 36.5426 43.7702 37.3442 43.7702C38.1458 43.7702 38.7273 43.5882 39.0885 43.2242C39.4555 42.8546 39.6389 42.2666 39.6389 41.4602C39.6389 40.6538 39.4555 40.0686 39.0885 39.7046C38.7273 39.335 38.1458 39.1502 37.3442 39.1502C36.5426 39.1502 35.9612 39.335 35.5998 39.7046ZM41.6538 44.4002V38.5202H42.3905V43.7114H46.2687V44.4002H41.6538ZM47.4861 39.1754C47.9659 38.6994 48.7364 38.4614 49.7978 38.4614C50.859 38.4614 51.6296 38.6994 52.1095 39.1754C52.5893 39.6514 52.8292 40.413 52.8292 41.4602C52.8292 42.5074 52.5893 43.269 52.1095 43.745C51.6296 44.221 50.859 44.459 49.7978 44.459C48.7364 44.459 47.9659 44.2238 47.4861 43.7534C47.0119 43.2774 46.7748 42.513 46.7748 41.4602C46.7748 40.4074 47.0119 39.6458 47.4861 39.1754ZM48.0534 39.7046C47.6921 40.0686 47.5115 40.6538 47.5115 41.4602C47.5115 42.2666 47.6921 42.8546 48.0534 43.2242C48.4147 43.5882 48.9961 43.7702 49.7978 43.7702C50.5993 43.7702 51.1808 43.5882 51.5421 43.2242C51.909 42.8546 52.0925 42.2666 52.0925 41.4602C52.0925 40.6538 51.909 40.0686 51.5421 39.7046C51.1808 39.335 50.5993 39.1502 49.7978 39.1502C48.9961 39.1502 48.4147 39.335 48.0534 39.7046ZM53.8533 41.4518C53.8533 40.4046 54.0932 39.6458 54.573 39.1754C55.0528 38.6994 55.8206 38.4614 56.8762 38.4614C57.7286 38.4614 58.3891 38.6126 58.8577 38.915C59.3263 39.2118 59.6339 39.685 59.7807 40.3346H59.0101C58.7335 39.545 58.0222 39.1502 56.8762 39.1502C56.0747 39.1502 55.4932 39.335 55.1319 39.7046C54.7706 40.0686 54.59 40.6538 54.59 41.4602C54.59 42.2722 54.7791 42.8602 55.1573 43.2242C55.5355 43.5882 56.1621 43.7702 57.0371 43.7702C57.7315 43.7702 58.2396 43.661 58.5613 43.4426C58.8831 43.2186 59.044 42.8658 59.044 42.3842V41.9642H56.8424V41.3174H59.7976V42.3842C59.7976 43.1066 59.5746 43.633 59.1287 43.9634C58.6883 44.2938 57.9884 44.459 57.0287 44.459C55.8996 44.459 55.0867 44.2238 54.59 43.7534C54.0988 43.2774 53.8533 42.5102 53.8533 41.4518ZM61.1279 44.4002V38.5202H61.8646V44.4002H61.1279ZM68.2535 44.4002H63.41V38.5202H68.2535V39.209H64.1467V41.1326H67.8301V41.7878H64.1467V43.7114H68.2535V44.4002ZM69.0247 42.779H69.7868C69.8944 43.1262 70.1031 43.3782 70.4134 43.535C70.7297 43.6918 71.1755 43.7702 71.7513 43.7702C72.9144 43.7702 73.4956 43.4594 73.4956 42.8378C73.4956 42.5522 73.3493 42.3282 73.0553 42.1658C72.7674 41.9978 72.2594 41.8578 71.5311 41.7458C70.6227 41.6002 69.99 41.407 69.6344 41.1662C69.2848 40.9254 69.1094 40.567 69.1094 40.091C69.1094 39.0046 69.9223 38.4614 71.5481 38.4614C72.3386 38.4614 72.9368 38.593 73.3432 38.8562C73.7497 39.1194 74.0067 39.5478 74.1138 40.1414H73.3432C73.2531 39.7998 73.0583 39.5506 72.7589 39.3938C72.4656 39.2314 72.0452 39.1502 71.4973 39.1502C70.391 39.1502 69.8376 39.4498 69.8376 40.049C69.8376 40.3178 69.9706 40.525 70.2356 40.6706C70.5065 40.8106 70.9837 40.9366 71.6666 41.0486C72.6319 41.211 73.2985 41.4182 73.665 41.6702C74.0376 41.9166 74.2239 42.2862 74.2239 42.779C74.2239 43.899 73.3747 44.459 71.6751 44.459C70.8622 44.459 70.244 44.3274 69.8206 44.0642C69.4033 43.7954 69.1378 43.367 69.0247 42.779Z" fill="white"/>
</svg>
