<svg width="75" height="48" viewBox="0 0 75 48" fill="none" xmlns="http://www.w3.org/2000/svg">
<path fill-rule="evenodd" clip-rule="evenodd" d="M23.7188 0.315674L40.7422 9.27564H30.3633V13.3009L29.278 12.718V9.27564H23.6992L23.7188 0.315674ZM36.4832 29.9271L23.7531 36.0166L23.7497 29.0855C25.6862 28.2172 27.1424 26.8324 28.0729 24.9796L30.3633 23.9378V29.9271H36.4832ZM40.7502 19.2137L41.0901 19.0589L40.7502 18.8767V18.4379C41.1597 18.44 42.3976 18.5048 42.6867 18.8291C42.7894 18.9436 42.8021 19.3571 42.8021 19.4972V19.6217C42.8021 19.7657 42.7893 20.2448 42.686 20.3621C42.4105 20.6771 41.1462 20.7413 40.7502 20.744V19.2137Z" fill="#CAF31C"/>
<path fill-rule="evenodd" clip-rule="evenodd" d="M0.0195672 7.26991e-05L18.9301 9.95311V19.2063C18.9301 19.4054 18.9025 20.1002 18.7626 20.2596C18.6181 20.3836 18.0171 20.4118 17.8468 20.4118H17.7705C16.6508 20.4118 16.6107 20.2363 16.6107 19.2063V9.27571H6.26224V12.7691L0 9.40765L0.0195672 7.26991e-05ZM12.9373 29.5384L0.0545244 35.7012L0.0492479 26.6312L6.8519 23.5371C7.79327 26.5704 9.85075 28.593 12.9373 29.5384Z" fill="#CAF31C"/>
<path fill-rule="evenodd" clip-rule="evenodd" d="M46.4374 0.631317L66.452 11.1642L64.6961 15.3953L62.1576 9.27564H50.3948L52.1171 13.0979L50.9066 12.4479C49.7213 11.2642 48.1787 10.4432 46.418 9.93348L46.4374 0.631317ZM74.4129 18.4571L74.3451 22.9992L71.9832 24.1287L74.4129 18.4571ZM59.8624 29.9271L46.4726 36.3322L46.4692 29.2516C49.1365 28.4617 51.2552 26.9468 52.4229 24.5535L56.4518 22.7212L59.6983 29.9271H59.8624Z" fill="#CAF31C"/>
<path fill-rule="evenodd" clip-rule="evenodd" d="M41.9294 18.539V20.6442C41.4835 20.7213 40.9756 20.7426 40.75 20.7439V18.4379C40.9838 18.4393 41.4863 18.4606 41.9294 18.539Z" fill="#CAF31C"/>
<path d="M17.8258 27.4328C25.608 27.4328 26.3711 22.1773 26.3711 19.1236V11.7494H21.2591V19.0821C21.2591 20.8478 20.7441 22.8835 17.5585 22.8835H17.4824C14.2587 22.8835 13.7057 20.8478 13.7057 19.0821V11.7494H8.59375V19.1236C8.59375 22.1773 9.147 27.4328 17.2344 27.4328H17.8258ZM32.6905 27.2042H41.0451C48.9419 27.2042 50.506 23.1952 50.506 19.6639V19.0406C50.506 15.5509 48.7702 11.7495 41.0451 11.7495H32.6905V27.2042ZM37.8406 15.7171H40.4346C44.6312 15.7171 45.127 17.8774 45.127 19.3728V19.4976C45.127 21.0555 44.6692 23.2159 40.4346 23.2159H37.8406V15.7171ZM67.4692 27.2042L74.088 11.7495H68.6898L64.3985 22.0942L60.1066 11.7495H54.1362L61.0985 27.2042H67.4692Z" fill="black"/>
<path d="M0.253906 39.2088V38.52H6.14745V39.2088H3.57326V44.4H2.8281V39.2088H0.253906ZM12.0144 44.4H7.17084V38.52H12.0144V39.2088H7.90754V41.1324H11.591V41.7876H7.90754V43.7112H12.0144V44.4ZM13.6068 43.7532C13.1326 43.2772 12.8955 42.5128 12.8955 41.46C12.8955 40.4072 13.1326 39.6456 13.6068 39.1752C14.0866 38.6992 14.8572 38.4612 15.9185 38.4612C16.7878 38.4612 17.4596 38.6208 17.9338 38.94C18.408 39.2536 18.7129 39.752 18.8483 40.4352H18.0862C17.9508 39.9928 17.708 39.668 17.358 39.4608C17.008 39.2536 16.5282 39.15 15.9185 39.15C15.1169 39.15 14.5354 39.3348 14.1741 39.7044C13.8129 40.0684 13.6322 40.6536 13.6322 41.46C13.6322 42.2664 13.8129 42.8544 14.1741 43.224C14.5354 43.588 15.1169 43.77 15.9185 43.77C16.5282 43.77 17.008 43.6664 17.358 43.4592C17.7137 43.252 17.9564 42.9244 18.0862 42.4764H18.8483C18.7129 43.1596 18.408 43.6608 17.9338 43.98C17.4596 44.2992 16.7878 44.4588 15.9185 44.4588C14.8572 44.4588 14.0866 44.2236 13.6068 43.7532ZM20.1371 44.4V38.52H20.8738V41.1156H25.1076V38.52H25.8443V44.4H25.1076V41.8044H20.8738V44.4H20.1371ZM28.126 44.4H27.3893V38.52H28.126L32.2921 43.3416V38.52H33.0288V44.4H32.2921L28.126 39.5868V44.4ZM35.0325 39.1752C35.5124 38.6992 36.2829 38.4612 37.3442 38.4612C38.4055 38.4612 39.1761 38.6992 39.6559 39.1752C40.1358 39.6512 40.3756 40.4128 40.3756 41.46C40.3756 42.5072 40.1358 43.2688 39.6559 43.7448C39.1761 44.2208 38.4055 44.4588 37.3442 44.4588C36.2829 44.4588 35.5124 44.2236 35.0325 43.7532C34.5583 43.2772 34.3212 42.5128 34.3212 41.46C34.3212 40.4072 34.5583 39.6456 35.0325 39.1752ZM35.5998 39.7044C35.2386 40.0684 35.0579 40.6536 35.0579 41.46C35.0579 42.2664 35.2386 42.8544 35.5998 43.224C35.9612 43.588 36.5426 43.77 37.3442 43.77C38.1458 43.77 38.7273 43.588 39.0885 43.224C39.4555 42.8544 39.6389 42.2664 39.6389 41.46C39.6389 40.6536 39.4555 40.0684 39.0885 39.7044C38.7273 39.3348 38.1458 39.15 37.3442 39.15C36.5426 39.15 35.9612 39.3348 35.5998 39.7044ZM41.6538 44.4V38.52H42.3905V43.7112H46.2687V44.4H41.6538ZM47.4861 39.1752C47.9659 38.6992 48.7364 38.4612 49.7978 38.4612C50.859 38.4612 51.6296 38.6992 52.1095 39.1752C52.5893 39.6512 52.8292 40.4128 52.8292 41.46C52.8292 42.5072 52.5893 43.2688 52.1095 43.7448C51.6296 44.2208 50.859 44.4588 49.7978 44.4588C48.7364 44.4588 47.9659 44.2236 47.4861 43.7532C47.0119 43.2772 46.7748 42.5128 46.7748 41.46C46.7748 40.4072 47.0119 39.6456 47.4861 39.1752ZM48.0534 39.7044C47.6921 40.0684 47.5115 40.6536 47.5115 41.46C47.5115 42.2664 47.6921 42.8544 48.0534 43.224C48.4147 43.588 48.9961 43.77 49.7978 43.77C50.5993 43.77 51.1808 43.588 51.5421 43.224C51.909 42.8544 52.0925 42.2664 52.0925 41.46C52.0925 40.6536 51.909 40.0684 51.5421 39.7044C51.1808 39.3348 50.5993 39.15 49.7978 39.15C48.9961 39.15 48.4147 39.3348 48.0534 39.7044ZM53.8533 41.4516C53.8533 40.4044 54.0932 39.6456 54.573 39.1752C55.0528 38.6992 55.8206 38.4612 56.8762 38.4612C57.7286 38.4612 58.3891 38.6124 58.8577 38.9148C59.3263 39.2116 59.6339 39.6848 59.7807 40.3344H59.0101C58.7335 39.5448 58.0222 39.15 56.8762 39.15C56.0747 39.15 55.4932 39.3348 55.1319 39.7044C54.7706 40.0684 54.59 40.6536 54.59 41.46C54.59 42.272 54.7791 42.86 55.1573 43.224C55.5355 43.588 56.1621 43.77 57.0371 43.77C57.7315 43.77 58.2396 43.6608 58.5613 43.4424C58.8831 43.2184 59.044 42.8656 59.044 42.384V41.964H56.8424V41.3172H59.7976V42.384C59.7976 43.1064 59.5746 43.6328 59.1287 43.9632C58.6883 44.2936 57.9884 44.4588 57.0287 44.4588C55.8996 44.4588 55.0867 44.2236 54.59 43.7532C54.0988 43.2772 53.8533 42.51 53.8533 41.4516ZM61.1279 44.4V38.52H61.8646V44.4H61.1279ZM68.2535 44.4H63.41V38.52H68.2535V39.2088H64.1467V41.1324H67.8301V41.7876H64.1467V43.7112H68.2535V44.4ZM69.0247 42.7788H69.7868C69.8944 43.126 70.1031 43.378 70.4134 43.5348C70.7297 43.6916 71.1755 43.77 71.7513 43.77C72.9144 43.77 73.4956 43.4592 73.4956 42.8376C73.4956 42.552 73.3493 42.328 73.0553 42.1656C72.7674 41.9976 72.2594 41.8576 71.5311 41.7456C70.6227 41.6 69.99 41.4068 69.6344 41.166C69.2848 40.9252 69.1094 40.5668 69.1094 40.0908C69.1094 39.0044 69.9223 38.4612 71.5481 38.4612C72.3386 38.4612 72.9368 38.5928 73.3432 38.856C73.7497 39.1192 74.0067 39.5476 74.1138 40.1412H73.3432C73.2531 39.7996 73.0583 39.5504 72.7589 39.3936C72.4656 39.2312 72.0452 39.15 71.4973 39.15C70.391 39.15 69.8376 39.4496 69.8376 40.0488C69.8376 40.3176 69.9706 40.5248 70.2356 40.6704C70.5065 40.8104 70.9837 40.9364 71.6666 41.0484C72.6319 41.2108 73.2985 41.418 73.665 41.67C74.0376 41.9164 74.2239 42.286 74.2239 42.7788C74.2239 43.8988 73.3747 44.4588 71.6751 44.4588C70.8622 44.4588 70.244 44.3272 69.8206 44.064C69.4033 43.7952 69.1378 43.3668 69.0247 42.7788Z" fill="black"/>
</svg>
